<svg id="Capa_1" enable-background="new 0 0 512 512" height="512" viewBox="0 0 512 512" width="512" xmlns="http://www.w3.org/2000/svg"><g><path d="m512 180.75h-210.875v-180.75h-90.25v180.75h-210.875v90.25h31.883l30.125 241h387.983l30.125-241h31.884zm-256 17.525c15.218 0 27.6 12.381 27.6 27.6s-12.381 27.6-27.6 27.6-27.6-12.381-27.6-27.6 12.382-27.6 27.6-27.6zm15.125-168.275v140.304c-4.823-1.314-9.891-2.029-15.125-2.029s-10.302.715-15.125 2.029v-140.304zm-241.125 180.75h170.43c-1.314 4.823-2.029 9.891-2.029 15.125s.715 10.302 2.029 15.125h-170.43zm393.508 271.25h-335.016l-26.375-211h158.149c9.828 7.799 22.242 12.475 35.734 12.475s25.906-4.675 35.734-12.475h158.149zm58.492-241h-170.43c1.314-4.823 2.029-9.891 2.029-15.125s-.715-10.302-2.029-15.125h170.43z"/><path d="m150.625 316.25h30v120.5h-30z"/><path d="m210.875 316.25h30v120.5h-30z"/><path d="m271.125 316.25h30v120.5h-30z"/><path d="m331.375 316.25h30v120.5h-30z"/></g></svg>